<?xml version="1.0" standalone="no"?><svg width="123" height="62" viewBox="0 0 123 62" xmlns="http://www.w3.org/2000/svg" xmlns:xlink="http://www.w3.org/1999/xlink"><svg version="1.0" width="61.333" height="61.333" viewBox="0 0 46 46" id="telegram" xmlns="http://www.w3.org/2000/svg"><path d="M15 1.3C10.1 2.9 2.7 10.6 1.2 15.6-1.5 24.7.4 32.5 7 39c9.3 9.4 22.7 9.4 32 0 9.4-9.3 9.4-22.7 0-32C32.5.5 24-1.5 15 1.3zm18.3 15.2c-.8 8.1-2.7 16.7-3.8 17.1-1.5.6-9.5-4.3-9.5-5.8 0-.5 1.6-2.2 3.5-3.9 5.2-4.6 4.2-5.4-1.7-1.4-2.9 1.9-6.4 3.5-7.8 3.5-2.7 0-5.8-1.5-4.9-2.4 1.2-1.2 21.5-9.4 22.9-9.3.8.2 1.4 1.1 1.3 2.2z"/></svg><svg version="1.0" width="61.333" height="61.333" viewBox="0 0 46 46" id="whatsapp" x="61.333" xmlns="http://www.w3.org/2000/svg"><path d="M13.5 2.4C7.5 5.2 4.8 8 2.1 14c-2.4 5.3-2.7 11.2-.7 16.8 1.3 3.5 1.2 4.7-.1 9.2-.8 2.8-1.3 5.4-1 5.6.3.3 2.9-.1 5.8-.9 4.4-1.1 6-1.2 8.9-.1 5.6 2 11.9 1.6 17.5-1 6-2.8 8.7-5.6 11.4-11.6 2.7-6 2.6-12.3-.3-18.5C40.8 7.5 38 4.8 32 2.1c-6-2.7-12.3-2.6-18.5.3zM18 15c1 2.3 1 3.3 0 4.5-1.4 1.7.4 4.8 4.7 7.6 2.5 1.7 2.9 1.7 4.5.2 1.5-1.3 2.2-1.4 4.8-.3 1.6.7 3 1.7 3 2.3 0 1.9-3.3 4.7-5.4 4.7-6-.1-16.7-8.6-18.2-14.5C9.8 13.2 15.6 9.2 18 15z"/></svg></svg>